<svg xmlns="http://www.w3.org/2000/svg" width="200" height="200" viewBox="0 0 200 200">
  <defs>
    <clipPath id="dc"><circle cx="100" cy="100" r="82"></circle></clipPath>
    <linearGradient id="dg" x1="0" y1="0" x2="0" y2="1">
      <stop offset="0" stop-color="#7B5CFF" stop-opacity="0"></stop>
      <stop offset="0.55" stop-color="#7B5CFF" stop-opacity="0.32"></stop>
      <stop offset="1" stop-color="#7B5CFF" stop-opacity="0.62"></stop>
    </linearGradient>
    <radialGradient id="dh" cx="0.5" cy="0.5" r="0.5">
      <stop offset="0" stop-color="#FBE3BE" stop-opacity="0.95"></stop>
      <stop offset="0.35" stop-color="#F4C07A" stop-opacity="0.62"></stop>
      <stop offset="1" stop-color="#F4C07A" stop-opacity="0"></stop>
    </radialGradient>
  </defs>
  <circle cx="100" cy="100" r="82" fill="#0E0B1E"></circle>
  <g clip-path="url(#dc)">
    <path d="M18 130 Q100 109 182 130 L182 200 L18 200 Z" fill="url(#dg)"></path>
    <ellipse cx="100" cy="124" rx="62" ry="30" fill="url(#dh)" opacity="0.5"></ellipse>
    <path d="M18 130 Q100 109 182 130" fill="none" stroke="#7B5CFF" stroke-opacity="0.55" stroke-width="1.4"></path>
    <ellipse cx="100" cy="122" rx="30" ry="26" fill="url(#dh)"></ellipse>
    <circle cx="100" cy="116" r="4.2" fill="#F4C07A"></circle>
    <g>
      <polyline points="46,58 70,46 98,62 122,49" fill="none" stroke="#F2EEE4" stroke-opacity="0.34" stroke-width="0.7"></polyline>
      <g fill="#F2EEE4" fill-opacity="0.7"><circle cx="46" cy="58" r="1.1"></circle><circle cx="70" cy="46" r="1.3"></circle><circle cx="98" cy="62" r="1"></circle><circle cx="122" cy="49" r="1.2"></circle></g>
      <g stroke="#F2EEE4" stroke-opacity="0.5" stroke-width="1.2" stroke-linecap="round"><path d="M150 72 h6 M153 69 v6"></path><path d="M58 92 h5 M60.5 89.5 v5"></path></g>
    </g>
  </g>
  <circle cx="100" cy="100" r="90" fill="none" stroke="#F2EEE4" stroke-opacity="0.85" stroke-width="1.6"></circle>
  <path d="M151.6 26.3 A90 90 0 0 1 189.1 87.5" fill="none" stroke="#E0589B" stroke-width="2.6" stroke-linecap="round"></path>
</svg>